<?xml version="1.0" encoding="utf-8"?>
<!-- Generator: Adobe Illustrator 23.0.3, SVG Export Plug-In . SVG Version: 6.00 Build 0)  -->
<svg version="1.1" xmlns="http://www.w3.org/2000/svg" xmlns:xlink="http://www.w3.org/1999/xlink" x="0px" y="0px"
	 viewBox="0 0 595.3 841.9" style="enable-background:new 0 0 595.3 841.9;" xml:space="preserve">
<style type="text/css">
	.st0{display:none;}
	.st1{fill:#1177D3;stroke:#006DBF;stroke-width:4;stroke-miterlimit:10;}
	.st2{fill:none;stroke:#211D1D;stroke-width:2;stroke-miterlimit:10;}
	.st3{fill:#FFF0EE;}
	.st4{fill:#006DBF;stroke:#006DBF;stroke-width:4;stroke-miterlimit:10;}
	.st5{fill:#D12C2C;stroke:#D12C2C;stroke-width:2;stroke-miterlimit:10;}
	.st6{fill:#1177D3;stroke:#00446D;stroke-width:2;stroke-miterlimit:10;}
	.st7{fill:#FFFFFF;stroke:#00446D;stroke-width:2;stroke-miterlimit:10;}
	.st8{fill:none;stroke:#00446D;stroke-width:2;stroke-miterlimit:10;}
	.st9{fill:#EAD911;stroke:#006DBF;stroke-width:2;stroke-miterlimit:10;}
	.st10{fill:#EAD911;stroke:#005589;stroke-width:2;stroke-miterlimit:10;}
	.st11{fill:#FFFFFF;stroke:#005589;stroke-width:2;stroke-miterlimit:10;}
	.st12{fill:#D12C2C;stroke:#005589;stroke-width:2;stroke-miterlimit:10;}
	.st13{fill:#EAD911;stroke:#BA3000;stroke-width:2;stroke-miterlimit:10;}
	.st14{fill:#026BBA;stroke:#045E96;stroke-width:4;stroke-miterlimit:10;}
	.st15{display:inline;fill:#FFDF00;stroke:#1D1D1B;stroke-miterlimit:10;}
	.st16{display:inline;fill:#FFFDF8;stroke:#1D1D1B;stroke-miterlimit:10;}
	.st17{display:inline;fill:#E42620;stroke:#1D1D1B;stroke-miterlimit:10;}
	.st18{display:inline;fill:#523C13;stroke:#1D1D1B;stroke-miterlimit:10;}
	.st19{display:inline;fill:#1C6E30;stroke:#1D1D1B;stroke-miterlimit:10;}
	.st20{display:inline;fill:#5B2468;stroke:#1D1D1B;stroke-miterlimit:10;}
	.st21{display:inline;fill:#16A0DB;stroke:#1D1D1B;stroke-miterlimit:10;}
	.st22{display:inline;fill:#F3AD01;stroke:#1D1D1B;stroke-miterlimit:10;}
	.st23{fill:#FFDF00;stroke:#1D1D1B;stroke-miterlimit:10;}
	.st24{fill:#FFFDF8;stroke:#1D1D1B;stroke-miterlimit:10;}
	.st25{fill:#E42620;stroke:#1D1D1B;stroke-miterlimit:10;}
	.st26{fill:#523C13;stroke:#1D1D1B;stroke-miterlimit:10;}
	.st27{fill:#1C6E30;stroke:#1D1D1B;stroke-miterlimit:10;}
	.st28{fill:#5B2468;stroke:#1D1D1B;stroke-miterlimit:10;}
	.st29{fill:#16A0DB;stroke:#1D1D1B;stroke-miterlimit:10;}
	.st30{fill:#F3AD01;stroke:#1D1D1B;stroke-miterlimit:10;}
	.st31{fill:url(#SVGID_1_);stroke:#AAAAAA;stroke-width:3;stroke-miterlimit:10;}
	.st32{fill:url(#SVGID_2_);stroke:#AAAAAA;stroke-width:3;stroke-miterlimit:10;}
	.st33{fill:none;}
	.st34{display:none;fill:#1177D3;}
	.st35{font-family:'FisherPrice-Titling';}
	.st36{font-size:46.5171px;}
	.st37{font-family:'Fisher-PriceGothic';}
	.st38{font-size:40px;}
	.st39{fill:#1177D3;}
	.st40{font-size:13.4383px;}
	.st41{fill:#4882B7;}
	.st42{font-size:13px;}
	.st43{fill:#D12C2C;stroke:#BA3000;stroke-width:2;stroke-miterlimit:10;}
</style>
<g id="Layer_14" class="st0">
</g>
<g id="body">
	<path class="st1" d="M351.2,526.2l-2.7-15.2v0l-2.6-14.6l-5-27.9l-2.5-14.1l-28.2-157c2.9,0,5.3-2.3,5.4-5.2l0.8-18.6l-61-11.4
		c0,0-5.2,1-5.2-8.3v-17.5c0,0,0,0,0,0s4.1-11.2-5.2-16.5c0,0-1.1-30.7-0.1-27.4c0.6,2-7.1,5.8-18.4,9c-2,0.6-4.2,1.2-6.6,1.7
		c0.5,1.3,0.8,2.8,0.8,4.3c0,4.3-2.2,8.1-5.5,10.3c-0.5,0.4-1.1,0.7-1.7,1c-0.4,0.2-0.9,0.4-1.3,0.6c-0.5,0.2-0.9,0.3-1.4,0.4
		c-0.1,0-0.1,0-0.2,0.1c-0.3,0.1-0.5,0.1-0.8,0.2c0,0-0.1,0-0.1,0c-0.3,0-0.6,0.1-0.9,0.1c-0.1,0-0.1,0-0.2,0c-0.3,0-0.6,0-0.9,0
		c-7.1,0-12.9-5.7-12.9-12.7c0-0.2,0-0.3,0-0.5c-3.9,0.3-7.9,0.5-11.9,0.5h-0.1c-3.8,0-7.6-0.1-11.2-0.4c0,0.1,0,0.3,0,0.4
		c0,4.4-2.3,8.2-5.7,10.5c-0.3,0.2-0.5,0.3-0.8,0.5c-0.3,0.1-0.5,0.3-0.8,0.4h0c-0.3,0.1-0.6,0.3-0.9,0.4c-0.3,0.1-0.6,0.2-0.9,0.3
		c-0.2,0.1-0.5,0.1-0.7,0.2c-0.1,0-0.3,0.1-0.4,0.1c-0.3,0.1-0.5,0.1-0.8,0.1c-0.3,0.1-0.6,0.1-1,0.1c-0.3,0-0.7,0-1,0
		c-7.1,0-12.9-5.7-12.9-12.7c0-1.4,0.3-2.8,0.7-4.1c-3-0.7-5.8-1.4-8.3-2.2c2.8,21.6-7.4,24.4-7.4,24.4c-0.3-1.6-2.9-6.1-7.2-5.7
		c2.5-0.6,3.9-2.7,4.6-5.5c-1.9,5.1-7.2,5.5-7.2,5.5c-9.2,5.3-5.2,16.5-5.2,16.5s0,8.3,0,17.6c0,9.3-5.2,8.3-5.2,8.3l-61,11.4
		l0.8,18.6c0.1,2.9,2.5,5.2,5.4,5.2l-28.5,159l-2.5,14.1l-5,27.9L17.2,513l-2.6,14.8c-0.4,2.3,1.4,4.3,3.7,4.4c1.1,0,2.3,0.3,3.5,1
		c0,0,36.2,0,38.2,0v23c0,1.6-1.3,2.8-2.8,2.8h-2.8v5.9c0,1.6-1.2,3-2.9,3.2l-1.8,0.2c0,0,0,128.2,0,145.8s17.6,16.5,17.6,16.5
		h231.6c0,0,17.6,1,17.6-16.5s0-145.8,0-145.8l-1.8-0.2c-1.6-0.2-2.9-1.6-2.9-3.2V559h-2.8c-1.6,0-2.8-1.3-2.8-2.8v-23
		c2.1,0,38.2,0,38.2,0c0.8-0.5,1.7-0.8,2.5-0.9C349.8,531.8,351.8,529.1,351.2,526.2z M227.4,162.5c-12.3,21.7-44.4,21.7-44.4,21.7
		s-27.8,1-44.4-21.7c-10.3,0-13.5-12.4-7.2-16s12.4,2.6,12.4,9.3c0,0,12.3,12.9,39.2,12.9c26.9,0,39.2-12.9,39.2-12.9
		c0-6.7,6.1-12.9,12.4-9.3C240.9,150.1,237.7,162.5,227.4,162.5z M227.4,201.7c8.3-2.8,10.1-2.8,10.1-2.8l7.1-3.8v25.3
		c0,0-0.5,0-1.2-0.2c0,0,0,0,0,0c-0.5,0-1,0.1-1.4,0.2c0,0,0.1,0,0.1,0c-0.1,0-0.1,0-0.1,0c-4.3-0.3-6.8,4.1-7.1,5.7
		C234.8,226,224.6,223.3,227.4,201.7z M146.4,253.2c0,0,0-0.1,0.1-0.1c0-0.1,0.1-0.1,0.1-0.1c0,0,0,0,0,0c0-0.1,0.1-0.1,0.1-0.2
		c0,0,0,0,0,0c0.1,0,0.1-0.1,0.2-0.1c0.1,0,0.2-0.1,0.3-0.1c0.5-0.2,1.4-0.1,2.8,0.4c0,0,21.1,8.2,35.1,8.3c14,0,35-8.3,35-8.3
		c1.4-0.5,2.3-0.6,2.8-0.4c0,0,0,0,0,0c0.1,0,0.2,0.1,0.2,0.1c0.1,0,0.1,0.1,0.2,0.1c0,0,0,0,0,0c0.1,0.1,0.1,0.1,0.1,0.2
		c0,0.1,0.1,0.1,0.1,0.2c0,0.1,0.1,0.1,0.1,0.2c0,0,0,0.1,0,0.1c0,0.1,0,0.2,0,0.2s1.3,2.7-3.6,7.6c-17.3,17.3-52.8,17.3-70.1,0
		c-4.9-4.9-3.6-7.6-3.6-7.6S146.3,253.5,146.4,253.2z"/>
	<path class="st2" d="M220.1,261.3c-17.3,17.3-52.8,17.3-70.1,0c-4.9-4.9-3.6-7.6-3.6-7.6s0-0.2,0.1-0.4c0,0,0-0.1,0.1-0.1
		c0-0.1,0.1-0.1,0.1-0.1c0,0,0,0,0,0c0-0.1,0.1-0.1,0.1-0.2c0,0,0,0,0,0c0.1,0,0.1-0.1,0.2-0.1c0.1,0,0.2-0.1,0.3-0.1
		c0.5-0.2,1.4-0.1,2.8,0.4c0,0,21.1,8.2,35.1,8.3c14,0,35-8.3,35-8.3c1.4-0.5,2.3-0.6,2.8-0.4c0,0,0,0,0,0c0.1,0,0.2,0.1,0.2,0.1
		c0.1,0,0.1,0.1,0.2,0.1c0,0,0,0,0,0c0.1,0.1,0.1,0.1,0.1,0.2c0,0.1,0.1,0.1,0.1,0.2c0,0.1,0.1,0.1,0.1,0.2c0,0,0,0.1,0,0.1
		c0,0.1,0,0.2,0,0.2S225,256.3,220.1,261.3z"/>
	<path class="st2" d="M227.4,162.5c-12.3,21.7-44.4,21.7-44.4,21.7s-27.8,1-44.4-21.7c-10.3,0-13.5-12.4-7.2-16s12.4,2.6,12.4,9.3
		c0,0,12.3,12.9,39.2,12.9c26.9,0,39.2-12.9,39.2-12.9c0-6.7,6.1-12.9,12.4-9.3C240.9,150.1,237.7,162.5,227.4,162.5z"/>
	<path class="st2" d="M244.6,195v25.3c0,0-0.5,0-1.2-0.2c0,0,0,0,0,0c-0.5,0-1,0.1-1.4,0.2c0,0,0.1,0,0.1,0c-0.1,0-0.1,0-0.1,0
		c-4.3-0.3-6.8,4.1-7.1,5.7c0,0-10.2-2.8-7.4-24.4c8.3-2.8,10.1-2.8,10.1-2.8L244.6,195z"/>
	<path class="st2" d="M244.9,186.3c0,0,0,2.1,0,6.2c0,2.1-7.1,5.8-18.4,9c-2,0.6-4.2,1.2-6.6,1.7c0.5,1.3,0.8,2.8,0.8,4.3
		c0,4.3-2.2,8.1-5.5,10.3c-0.5,0.4-1.1,0.7-1.7,1c-0.4,0.2-0.9,0.4-1.3,0.6c-0.5,0.2-0.9,0.3-1.4,0.4c-0.1,0-0.1,0-0.2,0.1
		c-0.3,0.1-0.5,0.1-0.8,0.2c0,0-0.1,0-0.1,0c-0.3,0-0.6,0.1-0.9,0.1c-0.1,0-0.1,0-0.2,0c-0.3,0-0.6,0-0.9,0
		c-7.1,0-12.9-5.7-12.9-12.7c0-0.2,0-0.3,0-0.5c-3.9,0.3-7.9,0.5-11.9,0.5h-0.1c-3.8,0-7.6-0.1-11.2-0.4c0,0.1,0,0.3,0,0.4
		c0,4.4-2.3,8.2-5.7,10.5c-0.3,0.2-0.5,0.3-0.8,0.5c-0.3,0.1-0.5,0.3-0.8,0.4h0c-0.3,0.1-0.6,0.3-0.9,0.4c-0.3,0.1-0.6,0.2-0.9,0.3
		c-0.2,0.1-0.5,0.1-0.7,0.2c-0.1,0-0.3,0.1-0.4,0.1c-0.3,0.1-0.5,0.1-0.8,0.1c-0.3,0.1-0.6,0.1-1,0.1c-0.3,0-0.7,0-1,0
		c-7.1,0-12.9-5.7-12.9-12.7c0-1.4,0.3-2.8,0.7-4.1c-3-0.7-5.8-1.4-8.3-2.2c2.8,21.6-7.4,24.4-7.4,24.4c-0.3-1.6-2.9-6.1-7.2-5.7
		c2.5-0.6,3.9-2.7,4.6-5.5c-1.9,5.1-7.2,5.5-7.2,5.5v-27.4c0-4.1,0-6.2,0-6.2c1.3,0,27,3.7,62,4.3C218,190,243.6,186.3,244.9,186.3z
		"/>
</g>
<g id="feet">
	<path id="face_1_" class="st3" d="M244.5,222c-4.9-0.2-6.2,0-8.8,5c-8.5-3.2-8.9-18.2-8.4-25.3c-14.8,4.8-42.3,6-42.3,6
		s-31.5-1.2-46.3-6c0.5,7.1,1.1,21.2-7.4,24.4c-3.5-4.8-3.8-7-8.6-5.9s-9.2,8.3-5.3,16.3c5.2,2.4,1.3,2.4,3.6,2.4
		c1.1,4.6,6.8,32.6,17.4,40.7c10.5,8.1,20.4,15.5,46.6,16.7c19.8,0,32.1-8.7,42.7-16.7c10.5-8.1,16.2-36.1,17.4-40.7
		c2.3,0,5.1-2,5.8-5.2C251.8,225.1,248.6,222.2,244.5,222z"/>
	<rect x="60" y="732.6" class="st1" width="102.3" height="34.6"/>
	<path class="st4" d="M62,774.5h98.3c1.1,0,2-0.9,2-2v-6.4c0-1.1-0.9-2-2-2H62c-1.1,0-2,0.9-2,2v6.4C60,773.6,60.9,774.5,62,774.5z"
		/>
	<rect x="204.3" y="732.6" class="st1" width="102.3" height="34.6"/>
	<path class="st4" d="M206.2,774.5h98.3c1.1,0,2-0.9,2-2v-6.4c0-1.1-0.9-2-2-2h-98.3c-1.1,0-2,0.9-2,2v6.4
		C204.3,773.6,205.1,774.5,206.2,774.5z"/>
</g>
<g id="hat_1_">
	<path class="st5" d="M121,186.3V87.6c0,0,18-45.7,48.1-45.3c30,0.4,30,0.4,30,0.4s32.5,6.6,45.9,44.9c0,42.9-0.1,98.7-0.1,98.7
		S185.6,195.9,121,186.3z"/>
</g>
<g id="eyes">
	<path class="st6" d="M171.7,207.5c0,4.4-2.3,8.2-5.7,10.5c-6.1-1-10.7-6.2-10.7-12.5c0-0.1,0-0.3,0-0.4c0.8,0.1,1.6,0.3,2.4,0.4
		c0.5,0.1,1,0.1,1.5,0.2c1.3,0.2,2.7,0.4,4,0.5c1.4,0.2,2.8,0.3,4.2,0.4c1.4,0.1,2.8,0.2,4.3,0.4c0,0,0,0,0,0
		C171.7,207.2,171.7,207.4,171.7,207.5z"/>
	<path class="st7" d="M171.7,207L171.7,207c-1.4-0.1-2.9-0.2-4.3-0.3c-1.4-0.1-2.8-0.3-4.2-0.4c-1.4-0.2-2.7-0.4-4-0.5
		c-0.5-0.1-1-0.1-1.5-0.2c-0.8-0.1-1.6-0.3-2.4-0.4c0,0.1,0,0.3,0,0.4c0,6.2,4.6,11.4,10.7,12.5c-0.3,0.2-0.5,0.3-0.8,0.5
		c-0.3,0.1-0.5,0.3-0.8,0.4h0c-0.3,0.1-0.6,0.3-0.9,0.4c-0.3,0.1-0.6,0.2-0.9,0.3c-0.2,0.1-0.5,0.1-0.7,0.2c-0.1,0-0.3,0.1-0.4,0.1
		c-0.3,0.1-0.5,0.1-0.8,0.1c-0.3,0.1-0.6,0.1-1,0.1c-0.3,0-0.7,0-1,0c-7.1,0-12.9-5.7-12.9-12.7c0-1.4,0.3-2.8,0.7-4.1
		c0-0.1,0-0.1,0.1-0.1C153.9,204.9,162.5,206.4,171.7,207z"/>
	<path class="st6" d="M220.8,207.5c0,4.3-2.2,8.1-5.5,10.3c-6-0.9-10.5-5.8-10.9-11.8c5.6-0.7,10.9-1.7,15.6-2.8
		C220.5,204.6,220.8,206,220.8,207.5z"/>
	<path class="st7" d="M215.3,217.8c-0.5,0.4-1.1,0.7-1.7,1c-0.4,0.2-0.9,0.4-1.3,0.6c-0.5,0.2-0.9,0.3-1.4,0.4c-0.1,0-0.1,0-0.2,0.1
		c-0.3,0.1-0.5,0.1-0.8,0.2c0,0-0.1,0-0.1,0c-0.3,0-0.6,0.1-0.9,0.1c-0.1,0-0.1,0-0.2,0c-0.3,0-0.6,0-0.9,0
		c-7.1,0-12.9-5.7-12.9-12.7c0-0.2,0-0.3,0-0.5c0.9-0.1,1.8-0.1,2.7-0.2c0.7-0.1,1.4-0.1,2.1-0.2c1-0.1,1.9-0.2,2.9-0.3
		c0.6-0.1,1.2-0.2,1.8-0.2C204.8,212.1,209.4,216.9,215.3,217.8z"/>
</g>
<g id="nose">
	<path class="st8" d="M190.3,243.2c0,0-10.3,6.7-15-6.2c0-11.4,9.3-9.8,9.3-9.8"/>
	<path class="st2" d="M130.9,227.1c0,0-1.6-7.2-9.8-7.2"/>
	<path class="st2" d="M244.5,220.1c-0.4,0-0.8,0-1.1,0.1"/>
	<path class="st2" d="M242,220.3C241.9,220.3,241.9,220.3,242,220.3c-6,1.3-7.2,6.9-7.2,6.9"/>
</g>
<g id="hair">
	<path class="st9" d="M130.9,225.6c-0.3-1.6-2.9-6.1-7.2-5.7c2.5-0.6,3.9-2.7,4.6-5.5c0.3-1.2,0.5-2.5,0.6-3.8v0
		c0.4-4.7-0.3-9.7-0.6-11.5c0-0.1,0-0.1,0-0.2c-0.1-0.4-0.1-0.5-0.1-0.5s1,0,4.9,1.1c1.4,0.4,3.1,1,5.2,1.7v0
		C141,222.8,130.9,225.6,130.9,225.6z"/>
	<path class="st10" d="M128.9,210.5L128.9,210.5c0,1.5-0.2,2.8-0.6,3.9c-1.9,5.1-7.2,5.5-7.2,5.5v-25.3l7.1,3.8c0,0,0,0.2,0.1,0.5
		c0,0.1,0,0.1,0,0.2C128.5,200.4,128.9,204,128.9,210.5z"/>
	<path class="st10" d="M242,220.4c-0.1,0-0.1,0-0.1,0c-4.3-0.3-6.8,4.1-7.1,5.7c0,0-10.2-2.8-7.4-24.4c8.3-2.8,10.1-2.8,10.1-2.8
		s0,0.2-0.1,0.5c0,0.1,0,0.1,0,0.2c0,0.1,0,0.2-0.1,0.3c-0.3,2-0.9,6.7-0.6,11.2c0.1,1.4,0.3,2.7,0.7,3.9
		C238.1,217.6,239.5,219.7,242,220.4C242,220.3,242,220.3,242,220.4z"/>
	<path class="st10" d="M244.6,195v25.3c0,0-0.5,0-1.2-0.2c0,0,0,0,0,0c-1.7-0.4-4.7-1.7-6-5.2c-0.4-1.1-0.7-2.4-0.7-3.9
		c0-6.1,0.4-9.6,0.6-11.2c0-0.1,0-0.2,0.1-0.3c0-0.1,0-0.1,0-0.2c0.1-0.4,0.1-0.5,0.1-0.5L244.6,195z"/>
</g>
<g id="mouth">
	<path class="st11" d="M222.9,252.6c-0.6,1-1.4,2.2-2.8,3.5c-17.3,17.3-52.8,17.3-70.1,0c-1.3-1.3-2.2-2.5-2.8-3.5
		c0.5-0.2,1.4-0.1,2.8,0.4c0,0,21.1,8.2,35.1,8.3c14,0,35-8.3,35-8.3C221.5,252.5,222.3,252.4,222.9,252.6z"/>
	<path class="st12" d="M220.1,261.3c-17.3,17.3-52.8,17.3-70.1,0c-4.9-4.9-3.6-7.6-3.6-7.6s0-0.2,0.1-0.4c0,0,0-0.1,0.1-0.1
		c0-0.1,0.1-0.1,0.1-0.1c0,0,0,0,0,0c0-0.1,0.1-0.1,0.1-0.2c0,0,0,0,0,0c0.1,0,0.1-0.1,0.2-0.1c0.1,0,0.2-0.1,0.3-0.1
		c0.6,1,1.4,2.2,2.8,3.5c17.3,17.3,52.8,17.3,70.1,0c1.3-1.3,2.2-2.5,2.8-3.5c0,0,0,0,0,0c0.1,0,0.2,0.1,0.2,0.1
		c0.1,0,0.1,0.1,0.2,0.1c0,0,0,0,0,0c0.1,0.1,0.1,0.1,0.1,0.2c0,0.1,0.1,0.1,0.1,0.2c0,0.1,0.1,0.1,0.1,0.2c0,0,0,0.1,0,0.1
		c0,0.1,0,0.2,0,0.2S225,256.3,220.1,261.3z"/>
</g>
<g id="hat_decs">
	<path class="st6" d="M244.9,186.3c0,0,0,2.1,0,6.2c0,2.1-7.1,5.8-18.4,9c-2,0.6-4.2,1.2-6.6,1.7c-4.7,1.1-10,2.1-15.6,2.8
		c-0.6,0.1-1.2,0.1-1.8,0.2c-1,0.1-1.9,0.2-2.9,0.3c-0.7,0.1-1.4,0.1-2.1,0.2c-0.9,0.1-1.8,0.2-2.7,0.2c-3.9,0.3-7.9,0.5-11.9,0.5
		h-0.1c-3.8,0-7.6-0.1-11.2-0.4c-1.4-0.1-2.9-0.2-4.3-0.4c-1.4-0.1-2.8-0.3-4.2-0.4c-1.4-0.2-2.7-0.4-4-0.5c-0.5-0.1-1-0.1-1.5-0.2
		c-0.8-0.1-1.6-0.3-2.4-0.4c-3.1-0.5-6-1.1-8.8-1.7c-3-0.7-5.8-1.4-8.3-2.2c-1.9-0.6-3.6-1.1-5.2-1.7c-7.5-2.7-12-5.4-12-7
		c0-4.1,0-6.2,0-6.2c1.3,0,27,3.7,62,4.3C218,190,243.6,186.3,244.9,186.3z"/>
	<path class="st13" d="M227.4,162.5c-12.3,21.7-44.4,21.7-44.4,21.7s-27.8,1-44.4-21.7c-10.3,0-13.5-12.4-7.2-16s12.4,2.6,12.4,9.3
		c0,0,12.3,12.9,39.2,12.9c26.9,0,39.2-12.9,39.2-12.9c0-6.7,6.1-12.9,12.4-9.3C240.9,150.1,237.7,162.5,227.4,162.5z"/>
	<path class="st13" d="M234.6,116.5c-6.3-3.6-12.4,2.6-12.4,9.3c0,0-12.3,12.9-39.2,12.9s-39.2-12.9-39.2-12.9
		c0-6.7-6.1-12.9-12.4-9.3c-6.3,3.6-3.1,16,7.2,16c16.5,22.7,44.4,21.7,44.4,21.7s32.1,0,44.4-21.7
		C237.7,132.6,240.9,120.1,234.6,116.5z"/>
	<path class="st13" d="M234.6,85.5c-6.3-3.6-12.4,2.6-12.4,9.3c0,0-12.3,12.9-39.2,12.9s-39.2-12.9-39.2-12.9
		c0-6.7-6.1-12.9-12.4-9.3c-6.3,3.6-3.1,16,7.2,16c16.5,22.7,44.4,21.7,44.4,21.7s32.1,0,44.4-21.7
		C237.7,101.5,240.9,89.1,234.6,85.5z"/>
</g>
<g id="neck">
	<path class="st14" d="M183,296.3c-7.3-0.3-15.4-1.5-24.2-4.4c-35-11.4-36.4-48.6-37.7-53.1c-3.1,0-5.2-2.4-5.2-2.4
		s2.7,28.1-5.2,25.8c0,0,11.5,56.5,74.3,56.5s70.4-56.5,70.4-56.5s-5.2,1.4-5.2-8.3s0-17.6,0-17.6s-2.1,2.4-5.2,2.4
		c-1.4,4.5-2.8,41.7-37.7,53.1c-8.8,2.9-17,4.1-24.2,4.4"/>
	<path class="st2" d="M211.9,236.1"/>
</g>
<g id="display">
	<path class="st1" d="M281.3,722.3H83.3c-4.3,0-7.8-3.5-7.8-7.8V329c0-4.3,3.5-7.8,7.8-7.8h197.9c4.3,0,7.8,3.5,7.8,7.8v385.6
		C289,718.8,285.5,722.3,281.3,722.3z"/>
	<g id="swatch">
		<g class="st0">
			<path class="st15" d="M265.1,735.8H97.7c-8.6,0-15.6-7-15.6-15.6v-355c0-8.6,7-15.6,15.6-15.6h167.4c8.6,0,15.6,7,15.6,15.6v355
				C280.7,728.8,273.7,735.8,265.1,735.8z"/>
			<path class="st16" d="M280.7,364.5c0-8.3-5.8-15-12.9-15H94.9c-7.1,0-12.9,6.8-12.9,15v307.5h198.7V364.5z"/>
			<path class="st17" d="M109.7,348H94.7c-7,0-12.7,6-12.7,13.4v20h27.6V348z"/>
			<path class="st18" d="M253.1,348h14.9c7,0,12.7,6,12.7,13.4v20h-27.6V348z"/>
			<rect x="109.7" y="348" class="st17" width="28.7" height="33.4"/>
			<rect x="138.4" y="348" class="st18" width="28.7" height="33.4"/>
			<rect x="167.1" y="348" class="st18" width="28.7" height="33.4"/>
			<rect x="195.7" y="348" class="st19" width="28.7" height="33.4"/>
			<rect x="224.4" y="348" class="st19" width="28.7" height="33.4"/>
			<rect x="109.7" y="381.4" class="st20" width="28.7" height="33.4"/>
			<rect x="138.4" y="381.4" class="st21" width="28.7" height="33.4"/>
			<rect x="167.1" y="381.4" class="st21" width="28.7" height="33.4"/>
			<rect x="195.7" y="381.4" class="st22" width="28.7" height="33.4"/>
			<rect x="224.4" y="381.4" class="st22" width="28.7" height="33.4"/>
			<rect x="253.1" y="381.4" class="st17" width="27.6" height="33.4"/>
			<rect x="82.1" y="381.4" class="st20" width="27.6" height="33.4"/>
			<rect x="109.7" y="414.4" class="st18" width="28.7" height="33.4"/>
			<rect x="138.4" y="414.4" class="st20" width="28.7" height="33.4"/>
			<rect x="167.1" y="414.4" class="st20" width="28.7" height="33.4"/>
			<rect x="195.7" y="414.4" class="st21" width="28.7" height="33.4"/>
			<rect x="224.4" y="414.4" class="st21" width="28.7" height="33.4"/>
			<rect x="253.1" y="414.4" class="st22" width="27.6" height="33.4"/>
			<rect x="82.1" y="414.4" class="st18" width="27.6" height="33.4"/>
			<rect x="109.7" y="447.8" class="st18" width="28.7" height="33.4"/>
			<rect x="138.4" y="447.8" class="st20" width="28.7" height="33.4"/>
			<rect x="167.1" y="447.5" class="st20" width="28.7" height="33.7"/>
			<rect x="195.7" y="447.8" class="st21" width="28.7" height="33.4"/>
			<rect x="224.4" y="447.8" class="st21" width="28.7" height="33.4"/>
			<rect x="253.1" y="447.8" class="st22" width="27.6" height="33.4"/>
			<rect x="82.1" y="447.8" class="st18" width="27.6" height="33.4"/>
			<rect x="181.3" y="481.2" class="st17" width="49.8" height="46.3"/>
			<rect x="131.8" y="527.1" class="st21" width="49.8" height="45.3"/>
			<rect x="82.1" y="572.5" class="st18" width="49.8" height="45.3"/>
			<rect x="181.3" y="527.1" class="st20" width="49.2" height="45.3"/>
			<rect x="230.5" y="481.2" class="st22" width="49.8" height="45.9"/>
			<rect x="131.6" y="572.5" class="st19" width="49.8" height="45.3"/>
		</g>
		<g>
			<path class="st23" d="M521.1,595.8l-143.6-21.4c-7.4-1.1-12.5-7.9-11.4-15.2l45.9-300.3c1.1-7.3,8.1-12.3,15.4-11.2L571.1,269
				c7.4,1.1,12.5,7.9,11.4,15.2l-45.9,300.3C535.5,591.9,528.5,596.9,521.1,595.8z"/>
			<path class="st24" d="M582.6,283.7c1.1-7-3-13.4-9.1-14.3l-148.3-22.1c-6.1-0.9-11.9,4.1-13,11.1l-39.8,260.1l170.4,25.3
				L582.6,283.7z"/>
			<path class="st25" d="M438,247.9l-12.8-1.9c-6-0.9-11.6,3.5-12.6,9.7l-2.6,16.9l23.7,3.5L438,247.9z"/>
			<path class="st26" d="M561,266.2l12.8,1.9c6,0.9,10.1,6.7,9.1,12.9l-2.6,16.9l-23.7-3.5L561,266.2z"/>
			<polygon class="st25" points="433.7,276.2 458.3,279.8 462.6,251.6 438,247.9 			"/>
			<polygon class="st26" points="458.3,279.8 482.9,283.5 487.2,255.3 462.6,251.6 			"/>
			<polygon class="st26" points="482.9,283.5 507.5,287.2 511.8,258.9 487.2,255.3 			"/>
			<polygon class="st27" points="507.5,287.2 532.1,290.8 536.4,262.6 511.8,258.9 			"/>
			<polygon class="st27" points="532.1,290.8 556.7,294.5 561,266.2 536.4,262.6 			"/>
			<polygon class="st28" points="429.4,304.4 454,308.1 458.3,279.8 433.7,276.2 			"/>
			<polygon class="st29" points="454,308.1 478.6,311.7 482.9,283.5 458.3,279.8 			"/>
			<polygon class="st29" points="478.6,311.7 503.2,315.4 507.5,287.2 482.9,283.5 			"/>
			<polygon class="st30" points="503.2,315.4 527.8,319 532.1,290.8 507.5,287.2 			"/>
			<polygon class="st30" points="527.8,319 552.4,322.7 556.7,294.5 532.1,290.8 			"/>
			<polygon class="st25" points="552.4,322.7 576.1,326.2 580.4,298 556.7,294.5 			"/>
			<polygon class="st28" points="405.7,300.9 429.4,304.4 433.7,276.2 410,272.7 			"/>
			<polygon class="st26" points="425.1,332.4 449.7,336 454,307.8 429.4,304.2 			"/>
			<polygon class="st28" points="449.7,336 474.3,339.7 478.6,311.5 454,307.8 			"/>
			<polygon class="st28" points="474.3,339.7 498.9,343.4 503.2,315.1 478.6,311.5 			"/>
			<polygon class="st29" points="498.9,343.4 523.5,347 527.8,318.8 503.2,315.1 			"/>
			<polygon class="st29" points="523.5,347 548.1,350.7 552.4,322.5 527.8,318.8 			"/>
			<polygon class="st30" points="548.1,350.7 571.8,354.2 576.1,326 552.4,322.5 			"/>
			<polygon class="st26" points="401.4,328.9 425.1,332.4 429.4,304.2 405.7,300.6 			"/>
			<polygon class="st26" points="420.8,360.6 445.4,364.3 449.7,336 425.1,332.4 			"/>
			<polygon class="st28" points="445.4,364.3 470,367.9 474.3,339.7 449.7,336 			"/>
			<polygon class="st28" points="470,367.9 494.6,371.6 499,343 474.3,339.4 			"/>
			<polygon class="st29" points="494.6,371.6 519.2,375.3 523.5,347 498.9,343.4 			"/>
			<polygon class="st29" points="519.2,375.3 543.8,378.9 548.1,350.7 523.5,347 			"/>
			<polygon class="st30" points="543.8,378.9 567.5,382.4 571.8,354.2 548.1,350.7 			"/>
			<polygon class="st26" points="397.1,357.1 420.8,360.6 425.1,332.4 401.4,328.9 			"/>
			<polygon class="st25" points="518.9,415.3 476.2,408.9 482.2,369.8 524.9,376.1 			"/>
			<polygon class="st29" points="470.7,447 428,440.6 433.8,402.3 476.5,408.7 			"/>
			<polygon class="st26" points="422.1,479 379.4,472.6 385.3,434.3 428,440.6 			"/>
			<polygon class="st28" points="512.6,453.2 470.4,447 476.3,408.6 518.5,414.9 			"/>
			<polygon class="st30" points="561.2,421.2 518.5,414.9 524.4,376 567.1,382.4 			"/>
			<polygon class="st27" points="464.6,485.3 421.9,479 427.8,440.6 470.5,447 			"/>
		</g>
	</g>
	<linearGradient id="SVGID_1_" gradientUnits="userSpaceOnUse" x1="182.8857" y1="468.6184" x2="182.8857" y2="680.9387">
		<stop  offset="0" style="stop-color:#E6E6E5"/>
		<stop  offset="0.423" style="stop-color:#CECECD"/>
		<stop  offset="1" style="stop-color:#A6A6A5"/>
	</linearGradient>
	<path class="st31" d="M272.2,680.9H93.6c-2.9,0-5.3-2.4-5.3-5.3V473.9c0-2.9,2.4-5.3,5.3-5.3h178.5c2.9,0,5.3,2.4,5.3,5.3v201.7
		C277.5,678.5,275.1,680.9,272.2,680.9z"/>
	<linearGradient id="SVGID_2_" gradientUnits="userSpaceOnUse" x1="181.852" y1="334.9572" x2="181.852" y2="436.638">
		<stop  offset="0" style="stop-color:#E6E6E5"/>
		<stop  offset="0.423" style="stop-color:#CECECD"/>
		<stop  offset="1" style="stop-color:#A6A6A5"/>
	</linearGradient>
	<path class="st32" d="M276.4,436.6H87.3v-98c0-2,1.7-3.7,3.7-3.7h181.8c2,0,3.7,1.7,3.7,3.7V436.6z"/>
	<path class="st33" d="M176.3,523.9h-27.6c-0.5,0-0.8-0.4-0.8-1v-36.4c0-0.5,0.4-1,0.8-1h27.6c0.5,0,0.8,0.4,0.8,1v36.4
		C177.1,523.4,176.7,523.9,176.3,523.9z"/>
	<g class="st0">
	</g>
	<path class="st33" d="M224,523.9h-27.6c-0.5,0-0.8-0.4-0.8-1v-36.4c0-0.5,0.4-1,0.8-1H224c0.5,0,0.8,0.4,0.8,1v36.4
		C224.8,523.4,224.4,523.9,224,523.9z"/>
	<g class="st0">
	</g>
	<path class="st33" d="M267.9,523.9h-27.6c-0.5,0-0.8-0.4-0.8-1v-36.4c0-0.5,0.4-1,0.8-1h27.6c0.5,0,0.8,0.4,0.8,1v36.4
		C268.7,523.4,268.4,523.9,267.9,523.9z"/>
	<g class="st0">
	</g>
	<path class="st33" d="M130.7,572.5h-27.6c-0.5,0-0.8-0.4-0.8-1v-36.4c0-0.5,0.4-1,0.8-1h27.6c0.5,0,0.8,0.4,0.8,1v36.4
		C131.5,572,131.2,572.5,130.7,572.5z"/>
	<g class="st0">
	</g>
	<path class="st33" d="M176.3,572.5h-27.6c-0.5,0-0.8-0.4-0.8-1v-36.4c0-0.5,0.4-1,0.8-1h27.6c0.5,0,0.8,0.4,0.8,1v36.4
		C177.1,572,176.7,572.5,176.3,572.5z"/>
	<g class="st0">
	</g>
	<path class="st33" d="M224,572.5h-27.6c-0.5,0-0.8-0.4-0.8-1v-36.4c0-0.5,0.4-1,0.8-1H224c0.5,0,0.8,0.4,0.8,1v36.4
		C224.8,572,224.4,572.5,224,572.5z"/>
	<g class="st0">
	</g>
	<path class="st33" d="M267.9,572.5h-27.6c-0.5,0-0.8-0.4-0.8-1v-36.4c0-0.5,0.4-1,0.8-1h27.6c0.5,0,0.8,0.4,0.8,1v36.4
		C268.7,572,268.4,572.5,267.9,572.5z"/>
	<g class="st0">
	</g>
	<path class="st33" d="M129.8,520.9h-27.6c-0.5,0-0.8-0.4-0.8-1v-36.4c0-0.5,0.4-1,0.8-1h27.6c0.5,0,0.8,0.4,0.8,1v36.4
		C130.6,520.5,130.2,520.9,129.8,520.9z"/>
	<g class="st0">
	</g>
	<path class="st33" d="M224,623.1h-27.6c-0.5,0-0.8-0.4-0.8-1v-36.4c0-0.5,0.4-1,0.8-1H224c0.5,0,0.8,0.4,0.8,1v36.4
		C224.8,622.7,224.4,623.1,224,623.1z"/>
	<text transform="matrix(1 0 0 1 195.5249 617.851)" class="st34 st35 st36">B</text>
	<path class="st33" d="M267.9,623.1h-27.6c-0.5,0-0.8-0.4-0.8-1v-36.4c0-0.5,0.4-1,0.8-1h27.6c0.5,0,0.8,0.4,0.8,1v36.4
		C268.7,622.7,268.4,623.1,267.9,623.1z"/>
	<text transform="matrix(1 0 0 1 239.4736 617.851)" class="st34 st35 st36">C</text>
	<path class="st33" d="M130.7,674.8h-27.6c-0.5,0-0.8-0.4-0.8-1v-36.4c0-0.5,0.4-1,0.8-1h27.6c0.5,0,0.8,0.4,0.8,1v36.4
		C131.5,674.4,131.2,674.8,130.7,674.8z"/>
	<text transform="matrix(1 0 0 1 102.2739 669.5365)" class="st34 st35 st36">C</text>
	<path class="st33" d="M176.3,674.8h-27.6c-0.5,0-0.8-0.4-0.8-1v-36.4c0-0.5,0.4-1,0.8-1h27.6c0.5,0,0.8,0.4,0.8,1v36.4
		C177.1,674.4,176.7,674.8,176.3,674.8z"/>
	<g class="st0">
	</g>
	<path class="st33" d="M224,674.8h-27.6c-0.5,0-0.8-0.4-0.8-1v-36.4c0-0.5,0.4-1,0.8-1H224c0.5,0,0.8,0.4,0.8,1v36.4
		C224.8,674.4,224.4,674.8,224,674.8z"/>
	<text transform="matrix(1 0 0 1 195.5249 669.5365)" class="st34 st35 st36">E</text>
	<path class="st33" d="M267.9,674.8h-27.6c-0.5,0-0.8-0.4-0.8-1v-36.4c0-0.5,0.4-1,0.8-1h27.6c0.5,0,0.8,0.4,0.8,1v36.4
		C268.7,674.4,268.4,674.8,267.9,674.8z"/>
	<text transform="matrix(1 0 0 1 239.4736 667.5599)" class="st34 st37 st36">F</text>
	<path class="st33" d="M224.6,382.4H100.1v-32.2c0-0.7,1.1-1.2,2.4-1.2h119.6c1.3,0,2.4,0.5,2.4,1.2V382.4z"/>
	<text transform="matrix(1 0 0 1 100.106 375.7157)" class="st34 st37 st38">MAJO</text>
	<path class="st33" d="M273.4,420.8H96.5v-32.2c0-0.7,1.5-1.2,3.4-1.2h170c1.9,0,3.4,0.5,3.4,1.2V420.8z"/>
	<text transform="matrix(1 0 0 1 96.5396 414.139)" class="st39 st37 st38">MORGAN</text>
	<path class="st33" d="M256.1,386.4H234v-16.1c0-0.3,0.2-0.6,0.4-0.6h21.3c0.2,0,0.4,0.3,0.4,0.6V386.4z"/>
	<text transform="matrix(1 0 0 1 234.0283 379.287)" class="st34 st35 st40">T.M</text>
	<text transform="matrix(1 0 0 1 788.4238 324.3593)" class="st0 st37" style="font-size:12px;">Lorem ipsum</text>
	<rect x="100.3" y="355.2" class="st33" width="147.6" height="41.2"/>
	<text transform="matrix(1 0 0 1 100.2866 381.9305)" class="st39 st37 st38">MAJOR</text>
	<rect x="105.6" y="490.6" class="st33" width="31.9" height="43.9"/>
	<text transform="matrix(1 0 0 1 105.6308 517.3047)" class="st39 st37 st38">A</text>
	<rect x="147.8" y="490.6" class="st33" width="31.9" height="43.9"/>
	<text transform="matrix(1 0 0 1 147.8071 517.3047)" class="st39 st37 st38">B</text>
	<rect x="191.3" y="490.5" class="st33" width="31.9" height="43.9"/>
	<text transform="matrix(1 0 0 1 191.2904 517.1946)" class="st39 st37 st38">C</text>
	<rect x="234.6" y="490.6" class="st33" width="31.9" height="43.9"/>
	<text transform="matrix(1 0 0 1 234.6282 517.3047)" class="st39 st37 st38">D</text>
	<polygon class="st33" points="137.5,583.8 104.6,583.8 104.6,539.9 136.5,539.9 	"/>
	<text transform="matrix(1 0 0 1 104.575 566.5569)" class="st39 st37 st38">D</text>
	<rect x="146.8" y="539.9" class="st33" width="31.9" height="43.9"/>
	<text transform="matrix(1 0 0 1 146.7512 566.5569)" class="st39 st37 st38">E</text>
	<rect x="190.2" y="539.7" class="st33" width="31.9" height="40.9"/>
	<text transform="matrix(1 0 0 1 190.235 566.4478)" class="st39 st37 st38">F</text>
	<rect x="233.6" y="538.9" class="st33" width="31.9" height="43.9"/>
	<text transform="matrix(1 0 0 1 233.5724 565.5569)" class="st39 st37 st38">G</text>
	<rect x="103" y="586.5" class="st33" width="31.9" height="43.9"/>
	<text transform="matrix(1 0 0 1 103.0453 613.2025)" class="st39 st37 st38">G</text>
	<rect x="145.2" y="586.5" class="st33" width="31.9" height="43.9"/>
	<text transform="matrix(1 0 0 1 145.2215 613.2025)" class="st39 st37 st38">A</text>
	<rect x="188.7" y="586.4" class="st33" width="31.9" height="43.9"/>
	<text transform="matrix(1 0 0 1 188.7048 613.0923)" class="st39 st37 st38">B</text>
	<rect x="232" y="586.5" class="st33" width="31.9" height="43.9"/>
	<text transform="matrix(1 0 0 1 232.0427 613.2025)" class="st39 st37 st38">C</text>
	<rect x="104.5" y="632.4" class="st33" width="31.9" height="34.9"/>
	<text transform="matrix(1 0 0 1 104.526 659.1346)" class="st39 st37 st38">C</text>
	<rect x="146.7" y="632.4" class="st33" width="31.9" height="42.9"/>
	<text transform="matrix(1 0 0 1 146.7022 659.1346)" class="st39 st37 st38">D</text>
	<rect x="190.2" y="632.3" class="st33" width="31.9" height="42.9"/>
	<text transform="matrix(1 0 0 1 190.1855 659.0236)" class="st39 st37 st38">E</text>
	<polyline class="st33" points="265.4,667.3 233.5,675.3 233.5,632.4 265.4,624.4 	"/>
	<g class="st0">
	</g>
	<rect x="235" y="632.1" class="st33" width="31.9" height="42.9"/>
	<text transform="matrix(1 0 0 1 234.9726 658.848)" class="st39 st37 st38">F</text>
	<rect x="232.9" y="371.3" class="st33" width="42.9" height="28.9"/>
	<text transform="matrix(1 0 0 1 232.9467 380.0094)" class="st41 st37 st42">TM</text>
</g>
<g id="armbands">
	<path class="st43" d="M60,534.2v23c0,1.6-1.3,2.8-2.8,2.8h-2.8v5.9c0,1.6-1.2,3-2.9,3.2l-1.8,0.2c0,0-27.9,2.1-27.9-35.1
		C21.8,534.2,58,534.2,60,534.2z"/>
	<path class="st43" d="M344.3,534.2c0,37.2-27.9,35.1-27.9,35.1l-1.8-0.2c-1.6-0.2-2.9-1.6-2.9-3.2V560h-2.8c-1.6,0-2.8-1.3-2.8-2.8
		v-23C308.1,534.2,344.3,534.2,344.3,534.2z"/>
	<polygon class="st9" points="27.4,456.4 69.9,441.1 69.9,454.6 24.9,470.5 	"/>
	<polygon class="st9" points="19.8,498.4 69.9,477.8 69.9,493.3 17.2,513 	"/>
	<polygon class="st9" points="338.7,454.6 296.3,439.3 296.3,452.7 341.3,468.6 	"/>
	<polygon class="st9" points="346.3,496.6 296.3,476 296.3,491.5 348.9,511.1 	"/>
</g>
<g id="shoulder">
	<g>
		<path class="st9" d="M55.9,297.4h61.7c0,0-15.2-23.4-15.2-33.6c-7.6,1.4-52.7,9.8-52.7,9.8S47.6,297.4,55.9,297.4z"/>
		<rect x="58.3" y="297.4" class="st9" width="4.1" height="15.2"/>
		<rect x="69.7" y="297.4" class="st9" width="4.1" height="15.2"/>
		<rect x="81.1" y="297.4" class="st9" width="4.1" height="15.2"/>
		<rect x="91.4" y="297.4" class="st9" width="4.1" height="15.2"/>
		<rect x="102.8" y="297.4" class="st9" width="4.1" height="15.2"/>
		
			<rect x="114.5" y="297.4" transform="matrix(0.9921 -0.1253 0.1253 0.9921 -37.3017 17.01)" class="st9" width="4.1" height="15.2"/>
	</g>
	<g>
		<path class="st9" d="M310.3,297.6h-61.7c0,0,13.1-17.5,14.8-33.8c7.6,1.4,53.1,10,53.1,10S318.5,297.6,310.3,297.6z"/>
		<rect x="303.7" y="297.6" class="st9" width="4.1" height="15.2"/>
		<rect x="292.4" y="297.6" class="st9" width="4.1" height="15.2"/>
		<rect x="281" y="297.6" class="st9" width="4.1" height="15.2"/>
		<rect x="270.6" y="297.6" class="st9" width="4.1" height="15.2"/>
		<rect x="259.3" y="297.6" class="st9" width="4.1" height="15.2"/>
		
			<rect x="242" y="303.1" transform="matrix(0.1253 -0.9921 0.9921 0.1253 -84.4507 514.6129)" class="st9" width="15.2" height="4.1"/>
		<polygon class="st2" points="-593.3,-35.4 -593.3,-35.4 -593.3,-35.4 -593.3,-35.4 		"/>
	</g>
</g>
</svg>
